<?xml version="1.0" encoding="iso-8859-1"?>
<!-- Uploaded to: SVG Repo, www.svgrepo.com, Generator: SVG Repo Mixer Tools -->
<svg class="w-5 h-5" version="1.1" id="Layer_1" xmlns="http://www.w3.org/2000/svg" xmlns:xlink="http://www.w3.org/1999/xlink" 
	 viewBox="0 0 512 512" xml:space="preserve">
<g>
	<g>
		<path style="fill:currentColor;" d="M423.795,31.763H88.205C39.363,31.763,0,71.571,0,119.966v192.679
			c0,48.711,39.699,88.205,88.205,88.205h54.841v18.531c0,10.656,8.638,19.292,19.292,19.292h84.429v22.253
			c0,17.109,20.595,25.661,32.752,13.821l83.601-81.417c7.765-7.561,7.783-20.063,0-27.643l-83.601-81.416
			c-12.196-11.883-32.752-3.204-32.752,13.821v22.251h-84.429c-10.656,0-19.292,8.638-19.292,19.292v18.533H88.205
			c-11.198,0-21.458-4.072-29.396-10.802l140.826-129.077c58.265,38.135,67.367,29.69,112.731,0l140.826,129.077
			c-7.938,6.73-18.198,10.802-29.396,10.802h-8.808c-11.785,0-21.339,9.554-21.339,21.339s9.554,21.34,21.339,21.34h8.808
			C472.247,400.85,512,361.406,512,312.645V119.966C512,71.476,472.549,31.763,423.795,31.763z M42.679,304.258V119.966
			c0-1.44,0.075-2.862,0.206-4.268l119.899,78.474L42.679,304.258z M266.284,197.444c-6.247,4.089-14.32,4.089-20.567-0.001
			L66.347,80.046c6.491-3.568,13.94-5.604,21.857-5.604c364.554,0,343.118-2.273,357.449,5.604L266.284,197.444z M469.321,304.258
			L349.215,194.174l119.9-78.475c0.131,1.406,0.206,2.828,0.206,4.268V304.258z"/>
	</g>
</g>
</svg>