<svg version="1.1" id="Layer_1" xmlns="http://www.w3.org/2000/svg" xmlns:xlink="http://www.w3.org/1999/xlink" x="0px" y="0px"
	 width="100%" viewBox="0 0 190 170" enable-background="new 0 0 190 170" xml:space="preserve">
<path fill="currentColor" opacity="1.000000" stroke="none" 
	d="
M191.000000,42.000000 
	C191.000000,43.066669 191.000000,44.133339 190.647156,45.708176 
	C181.312286,50.213287 172.330276,54.210228 163.277695,58.238579 
	C172.718582,62.243954 181.859283,66.121979 191.000000,70.000000 
	C191.000000,80.354225 191.000000,90.708458 190.624207,101.538902 
	C181.482224,105.915535 172.716049,109.815948 163.118210,114.086403 
	C172.995224,118.306747 181.997604,122.153374 191.000000,126.000000 
	C191.000000,127.066673 191.000000,128.133347 190.624207,129.607574 
	C177.210526,135.814835 164.183395,141.638870 151.131393,147.406647 
	C140.447586,152.127899 129.700043,156.706161 119.046227,161.493530 
	C112.302017,164.524078 105.677948,167.821991 99.000000,171.000000 
	C97.285645,171.000000 95.571281,171.000000 93.306633,170.659943 
	C71.248497,160.769836 49.755585,151.185959 28.225700,141.685867 
	C19.190786,137.699203 10.077600,133.889923 0.999999,130.000000 
	C1.000000,128.933334 1.000000,127.866661 1.375798,126.392426 
	C10.517780,122.084465 19.283966,118.184059 28.881821,113.913612 
	C19.004774,109.693253 10.002386,105.846626 0.999999,102.000000 
	C1.000000,91.645775 1.000000,81.291542 1.375796,70.461090 
	C10.702196,66.097366 19.652800,62.209866 28.939264,58.176487 
	C19.526863,54.074375 10.263432,50.037189 1.000000,46.000000 
	C1.000000,44.933331 1.000000,43.866661 1.376041,42.392418 
	C11.957569,37.410618 22.148844,32.804352 32.371540,28.268909 
	C52.905289,19.158825 73.456184,10.087387 94.000000,1.000000 
	C95.388893,1.000000 96.777779,1.000000 98.705154,1.340076 
	C101.283096,2.695651 103.287216,3.790743 105.367493,4.714307 
	C125.689857,13.736705 146.002991,22.780533 166.367203,31.707748 
	C174.516098,35.280037 182.785461,38.577465 191.000000,42.000000 
M131.913345,21.784470 
	C131.014664,21.071520 130.216003,20.136393 129.201874,19.679939 
	C118.896172,15.041438 108.591621,10.395024 98.181557,6.000022 
	C96.772247,5.405030 94.573936,5.720114 93.096329,6.393541 
	C77.846016,13.343977 62.753250,20.644527 47.443607,27.458904 
	C35.948166,32.575569 24.195797,37.114300 12.570878,41.941788 
	C11.291413,42.473118 10.098071,43.211830 7.725745,44.447788 
	C12.422244,46.230854 15.995978,47.382473 19.397898,48.915394 
	C32.798840,54.953892 46.121677,61.165668 59.520245,67.209503 
	C70.582375,72.199417 81.662933,77.156708 92.856102,81.839806 
	C94.712486,82.616493 97.484535,82.595352 99.332619,81.791504 
	C124.939507,70.653481 150.460892,59.318783 175.995758,48.015408 
	C177.995178,47.130333 179.939316,46.120396 182.870316,44.704014 
	C179.570633,43.084137 177.428253,41.943039 175.215439,40.960621 
	C161.020798,34.658688 146.810684,28.391558 131.913345,21.784470 
M149.124008,119.578735 
	C132.265030,127.092682 115.437531,134.679398 98.496880,142.004456 
	C96.860054,142.712219 94.296959,142.316223 92.544022,141.556000 
	C75.457642,134.145996 58.351234,126.765144 41.485989,118.872810 
	C36.488838,116.534317 32.458874,116.283478 27.593172,118.912476 
	C21.571789,122.165894 15.137953,124.655952 8.882308,127.475800 
	C8.902327,127.932129 8.922345,128.388458 8.942364,128.844788 
	C13.836373,130.719299 18.831270,132.368454 23.607212,134.506699 
	C46.188759,144.616714 68.657654,154.981125 91.323563,164.896301 
	C94.008949,166.071014 98.028183,165.982101 100.791351,164.879974 
	C111.903114,160.447937 122.763153,155.385025 133.718246,150.559860 
	C144.282318,145.906906 154.864990,141.295654 165.407730,136.594864 
	C170.767303,134.205139 176.057037,131.658783 181.378342,129.183228 
	C181.459229,128.522949 181.540115,127.862679 181.621002,127.202400 
	C176.392639,124.666862 171.059921,122.322670 165.964340,119.543671 
	C160.527664,116.578651 155.269104,115.434860 149.124008,119.578735 
M121.986465,76.520111 
	C113.960945,80.019707 105.959328,83.576485 97.882339,86.952980 
	C96.759911,87.422188 95.085747,87.416481 93.971001,86.931648 
	C78.798386,80.332809 63.544392,73.895416 48.599152,66.809334 
	C39.982147,62.723705 31.840555,58.800835 23.045406,65.939369 
	C22.831944,66.112617 22.354195,65.921379 22.070642,66.052971 
	C17.738247,68.063614 13.417679,70.099739 8.694218,72.317825 
	C17.729082,76.113281 26.150135,79.495094 34.443226,83.166000 
	C53.883980,91.771362 73.235443,100.579193 92.713211,109.098969 
	C94.561493,109.907433 97.343376,109.962250 99.186783,109.178726 
	C111.877937,103.784470 124.420456,98.041733 137.038345,92.473549 
	C152.223557,85.772423 167.436096,79.133209 183.289703,72.180878 
	C175.410080,68.638855 168.147766,65.070175 160.624512,62.180939 
	C158.415741,61.332676 155.198364,61.765907 152.903152,62.719181 
	C142.718140,66.949348 132.700287,71.582039 121.986465,76.520111 
M42.535961,114.916916 
	C49.234329,117.866249 55.932701,120.815582 62.996391,123.925774 
	C62.996391,118.279022 62.507820,113.392159 63.122208,108.648132 
	C63.861454,102.939972 61.611202,99.997398 56.497684,98.076439 
	C49.755283,95.543556 43.187481,92.545921 36.003613,89.520226 
	C36.003613,95.815910 36.346992,101.320129 35.900631,106.759544 
	C35.506512,111.562386 37.469448,113.787941 42.535961,114.916916 
M146.013824,116.479744 
	C148.536316,115.366371 151.126877,114.379692 153.548477,113.078552 
	C154.545715,112.542725 155.845001,111.350105 155.872253,110.422890 
	C156.070282,103.684341 155.978699,96.937271 155.978699,89.286438 
	C146.778610,93.447906 138.376007,97.192184 130.059479,101.118774 
	C129.401810,101.429291 129.062790,103.001877 129.049316,103.994370 
	C128.961334,110.474426 129.004074,116.956268 129.004074,123.953835 
	C134.675598,121.521217 140.026627,119.226067 146.013824,116.479744 
M89.562057,113.007942 
	C82.166512,109.756454 74.770966,106.504959 67.005577,103.090866 
	C67.005577,110.216896 66.951683,116.835922 67.068489,123.451920 
	C67.084496,124.358208 67.723900,125.726631 68.457359,126.074699 
	C76.810738,130.038757 85.238518,133.846008 93.996361,137.855377 
	C93.996361,131.081558 93.826996,125.090981 94.066521,119.116798 
	C94.189636,116.045944 93.359528,114.018463 89.562057,113.007942 
M25.071091,84.576653 
	C18.674223,81.652779 12.277355,78.728897 5.572770,75.664368 
	C5.572770,83.672394 5.572770,90.998947 5.572770,98.595169 
	C13.969095,102.278717 22.779810,106.144066 31.817665,110.109055 
	C31.817665,102.177406 31.817665,94.736336 31.817665,87.131676 
	C29.732605,86.377983 27.752596,85.662262 25.071091,84.576653 
M161.003586,94.709641 
	C161.003586,99.752136 161.003586,104.794624 161.003586,110.003357 
	C169.564209,106.166573 178.214478,102.289604 186.667480,98.501053 
	C186.667480,90.937340 186.667480,83.582077 186.667480,75.902596 
	C177.577103,79.870850 168.884949,83.665260 160.388840,87.374100 
	C160.607529,89.653107 160.805557,91.716789 161.003586,94.709641 
M110.055237,109.447937 
	C106.143234,111.304054 102.231232,113.160179 99.082085,114.654343 
	C99.082085,122.504967 99.082085,129.662598 99.082085,137.119415 
	C107.504173,133.534637 115.282066,130.318863 122.943726,126.846588 
	C123.935127,126.397278 124.870789,124.637566 124.904190,123.458572 
	C125.091652,116.842148 124.994522,110.217659 124.994522,103.266083 
	C120.016281,105.290985 115.375099,107.178780 110.055237,109.447937 
z"/>
<path fill="none" opacity="1.000000" stroke="none" 
	d="
M93.531342,1.000000 
	C73.456184,10.087387 52.905289,19.158825 32.371540,28.268909 
	C22.148844,32.804352 11.957569,37.410618 1.376041,41.992424 
	C1.000000,28.378103 1.000000,14.756206 1.000000,1.000000 
	C31.687441,1.000000 62.375061,1.000000 93.531342,1.000000 
z"/>
<path fill="none" opacity="1.000000" stroke="none" 
	d="
M191.000000,41.531342 
	C182.785461,38.577465 174.516098,35.280037 166.367203,31.707748 
	C146.002991,22.780533 125.689857,13.736705 105.367493,4.714307 
	C103.287216,3.790743 101.283096,2.695651 99.121819,1.340076 
	C129.565445,1.000000 160.130905,1.000000 191.000000,1.000000 
	C191.000000,14.352694 191.000000,27.707687 191.000000,41.531342 
z"/>
<path fill="none" opacity="1.000000" stroke="none" 
	d="
M0.999999,130.468658 
	C10.077600,133.889923 19.190786,137.699203 28.225700,141.685867 
	C49.755585,151.185959 71.248497,160.769836 92.878174,170.659943 
	C62.434544,171.000000 31.869089,171.000000 1.000000,171.000000 
	C1.000000,157.647308 1.000000,144.292313 0.999999,130.468658 
z"/>
<path fill="none" opacity="1.000000" stroke="none" 
	d="
M99.468658,171.000000 
	C105.677948,167.821991 112.302017,164.524078 119.046227,161.493530 
	C129.700043,156.706161 140.447586,152.127899 151.131393,147.406647 
	C164.183395,141.638870 177.210526,135.814835 190.624207,130.007568 
	C191.000000,143.621567 191.000000,157.243118 191.000000,171.000000 
	C160.645889,171.000000 130.291611,171.000000 99.468658,171.000000 
z"/>
<path fill="none" opacity="1.000000" stroke="none" 
	d="
M0.999999,102.468643 
	C10.002386,105.846626 19.004774,109.693253 28.881821,113.913612 
	C19.283966,118.184059 10.517780,122.084465 1.375798,125.992432 
	C1.000000,118.312424 1.000000,110.624847 0.999999,102.468643 
z"/>
<path fill="none" opacity="1.000000" stroke="none" 
	d="
M191.000000,125.531364 
	C181.997604,122.153374 172.995224,118.306747 163.118210,114.086403 
	C172.716049,109.815948 181.482224,105.915535 190.624207,102.007561 
	C191.000000,109.687576 191.000000,117.375153 191.000000,125.531364 
z"/>
<path fill="none" opacity="1.000000" stroke="none" 
	d="
M1.000000,46.468636 
	C10.263432,50.037189 19.526863,54.074375 28.939264,58.176487 
	C19.652800,62.209866 10.702196,66.097366 1.375796,69.992432 
	C1.000000,62.312424 1.000000,54.624847 1.000000,46.468636 
z"/>
<path fill="none" opacity="1.000000" stroke="none" 
	d="
M191.000000,69.531364 
	C181.859283,66.121979 172.718582,62.243954 163.277695,58.238579 
	C172.330276,54.210228 181.312286,50.213287 190.647156,46.108173 
	C191.000000,53.687576 191.000000,61.375153 191.000000,69.531364 
z"/>
<path fill="none" opacity="1.000000" stroke="none" 
	d="
M132.259506,21.948730 
	C146.810684,28.391558 161.020798,34.658688 175.215439,40.960621 
	C177.428253,41.943039 179.570633,43.084137 182.870316,44.704014 
	C179.939316,46.120396 177.995178,47.130333 175.995758,48.015408 
	C150.460892,59.318783 124.939507,70.653481 99.332619,81.791504 
	C97.484535,82.595352 94.712486,82.616493 92.856102,81.839806 
	C81.662933,77.156708 70.582375,72.199417 59.520245,67.209503 
	C46.121677,61.165668 32.798840,54.953892 19.397898,48.915394 
	C15.995978,47.382473 12.422244,46.230854 7.725745,44.447788 
	C10.098071,43.211830 11.291413,42.473118 12.570878,41.941788 
	C24.195797,37.114300 35.948166,32.575569 47.443607,27.458904 
	C62.753250,20.644527 77.846016,13.343977 93.096329,6.393541 
	C94.573936,5.720114 96.772247,5.405030 98.181557,6.000022 
	C108.591621,10.395024 118.896172,15.041438 129.201874,19.679939 
	C130.216003,20.136393 131.014664,21.071520 132.259506,21.948730 
z"/>
<path fill="none" opacity="1.000000" stroke="none" 
	d="
M149.469055,119.421387 
	C155.269104,115.434860 160.527664,116.578651 165.964340,119.543671 
	C171.059921,122.322670 176.392639,124.666862 181.621002,127.202400 
	C181.540115,127.862679 181.459229,128.522949 181.378342,129.183228 
	C176.057037,131.658783 170.767303,134.205139 165.407730,136.594864 
	C154.864990,141.295654 144.282318,145.906906 133.718246,150.559860 
	C122.763153,155.385025 111.903114,160.447937 100.791351,164.879974 
	C98.028183,165.982101 94.008949,166.071014 91.323563,164.896301 
	C68.657654,154.981125 46.188759,144.616714 23.607212,134.506699 
	C18.831270,132.368454 13.836373,130.719299 8.942364,128.844788 
	C8.922345,128.388458 8.902327,127.932129 8.882308,127.475800 
	C15.137953,124.655952 21.571789,122.165894 27.593172,118.912476 
	C32.458874,116.283478 36.488838,116.534317 41.485989,118.872810 
	C58.351234,126.765144 75.457642,134.145996 92.544022,141.556000 
	C94.296959,142.316223 96.860054,142.712219 98.496880,142.004456 
	C115.437531,134.679398 132.265030,127.092682 149.469055,119.421387 
z"/>
<path fill="none" opacity="1.000000" stroke="none" 
	d="
M122.304214,76.294617 
	C132.700287,71.582039 142.718140,66.949348 152.903152,62.719181 
	C155.198364,61.765907 158.415741,61.332676 160.624512,62.180939 
	C168.147766,65.070175 175.410080,68.638855 183.289703,72.180878 
	C167.436096,79.133209 152.223557,85.772423 137.038345,92.473549 
	C124.420456,98.041733 111.877937,103.784470 99.186783,109.178726 
	C97.343376,109.962250 94.561493,109.907433 92.713211,109.098969 
	C73.235443,100.579193 53.883980,91.771362 34.443226,83.166000 
	C26.150135,79.495094 17.729082,76.113281 8.694218,72.317825 
	C13.417679,70.099739 17.738247,68.063614 22.070642,66.052971 
	C22.354195,65.921379 22.831944,66.112617 23.045406,65.939369 
	C31.840555,58.800835 39.982147,62.723705 48.599152,66.809334 
	C63.544392,73.895416 78.798386,80.332809 93.971001,86.931648 
	C95.085747,87.416481 96.759911,87.422188 97.882339,86.952980 
	C105.959328,83.576485 113.960945,80.019707 122.304214,76.294617 
z"/>
<path fill="none" opacity="1.000000" stroke="none" 
	d="
M42.229561,114.668076 
	C37.469448,113.787941 35.506512,111.562386 35.900631,106.759544 
	C36.346992,101.320129 36.003613,95.815910 36.003613,89.520226 
	C43.187481,92.545921 49.755283,95.543556 56.497684,98.076439 
	C61.611202,99.997398 63.861454,102.939972 63.122208,108.648132 
	C62.507820,113.392159 62.996391,118.279022 62.996391,123.925774 
	C55.932701,120.815582 49.234329,117.866249 42.229561,114.668076 
z"/>
<path fill="none" opacity="1.000000" stroke="none" 
	d="
M145.695740,116.705322 
	C140.026627,119.226067 134.675598,121.521217 129.004074,123.953835 
	C129.004074,116.956268 128.961334,110.474426 129.049316,103.994370 
	C129.062790,103.001877 129.401810,101.429291 130.059479,101.118774 
	C138.376007,97.192184 146.778610,93.447906 155.978699,89.286438 
	C155.978699,96.937271 156.070282,103.684341 155.872253,110.422890 
	C155.845001,111.350105 154.545715,112.542725 153.548477,113.078552 
	C151.126877,114.379692 148.536316,115.366371 145.695740,116.705322 
z"/>
<path fill="none" opacity="1.000000" stroke="none" 
	d="
M89.962189,113.046730 
	C93.359528,114.018463 94.189636,116.045944 94.066521,119.116798 
	C93.826996,125.090981 93.996361,131.081558 93.996361,137.855377 
	C85.238518,133.846008 76.810738,130.038757 68.457359,126.074699 
	C67.723900,125.726631 67.084496,124.358208 67.068489,123.451920 
	C66.951683,116.835922 67.005577,110.216896 67.005577,103.090866 
	C74.770966,106.504959 82.166512,109.756454 89.962189,113.046730 
z"/>
<path fill="none" opacity="1.000000" stroke="none" 
	d="
M25.421837,84.761597 
	C27.752596,85.662262 29.732605,86.377983 31.817665,87.131676 
	C31.817665,94.736336 31.817665,102.177406 31.817665,110.109055 
	C22.779810,106.144066 13.969095,102.278717 5.572770,98.595169 
	C5.572770,90.998947 5.572770,83.672394 5.572770,75.664368 
	C12.277355,78.728897 18.674223,81.652779 25.421837,84.761597 
z"/>
<path fill="none" opacity="1.000000" stroke="none" 
	d="
M161.003586,94.245056 
	C160.805557,91.716789 160.607529,89.653107 160.388840,87.374100 
	C168.884949,83.665260 177.577103,79.870850 186.667480,75.902596 
	C186.667480,83.582077 186.667480,90.937340 186.667480,98.501053 
	C178.214478,102.289604 169.564209,106.166573 161.003586,110.003357 
	C161.003586,104.794624 161.003586,99.752136 161.003586,94.245056 
z"/>
<path fill="none" opacity="1.000000" stroke="none" 
	d="
M110.394577,109.257256 
	C115.375099,107.178780 120.016281,105.290985 124.994522,103.266083 
	C124.994522,110.217659 125.091652,116.842148 124.904190,123.458572 
	C124.870789,124.637566 123.935127,126.397278 122.943726,126.846588 
	C115.282066,130.318863 107.504173,133.534637 99.082085,137.119415 
	C99.082085,129.662598 99.082085,122.504967 99.082085,114.654343 
	C102.231232,113.160179 106.143234,111.304054 110.394577,109.257256 
z"/>
</svg>