<svg version="1.1" id="Layer_1" xmlns="http://www.w3.org/2000/svg" xmlns:xlink="http://www.w3.org/1999/xlink" x="0px" y="0px"
	 width="100%" viewBox="0 0 190 170" enable-background="new 0 0 190 170" xml:space="preserve">
<path fill="none" opacity="1.000000" stroke="none" 
	d="
M52.000000,1.000000 
	C98.268936,1.000000 144.537872,1.000000 190.903412,1.000000 
	C190.903412,57.666557 190.903412,114.333252 190.903412,171.000000 
	C186.602875,171.000000 182.275558,171.000000 177.477722,170.531357 
	C177.007202,129.488007 177.007202,88.913300 177.007202,47.864010 
	C143.066986,47.864010 109.689774,47.864010 76.008270,47.864010 
	C76.008270,41.588196 76.265770,35.770660 75.938499,29.986214 
	C75.585457,23.746290 73.585915,18.070408 69.613625,12.967783 
	C64.964592,6.995859 58.891270,3.484649 52.000000,1.000000 
z"/>
<path fill="currentColor" opacity="1.000000" stroke="none" 
	d="
M51.536816,1.000000 
	C58.891270,3.484649 64.964592,6.995859 69.613625,12.967783 
	C73.585915,18.070408 75.585457,23.746290 75.938499,29.986214 
	C76.265770,35.770660 76.008270,41.588196 76.008270,47.864010 
	C109.689774,47.864010 143.066986,47.864010 177.007202,47.864010 
	C177.007202,88.913300 177.007202,129.488007 177.003601,170.531357 
	C130.979111,171.000000 84.958214,171.000000 38.334160,170.655380 
	C24.247768,166.632584 14.787767,154.117523 14.894552,140.337982 
	C15.179720,103.540031 14.924463,66.738113 15.097032,29.938765 
	C15.114024,26.315210 16.153254,22.523106 17.490257,19.111916 
	C21.342945,9.282291 29.515230,4.294950 39.000000,1.000000 
	C43.024544,1.000000 47.049088,1.000000 51.536816,1.000000 
M63.195557,165.121796 
	C62.684662,165.530746 62.173767,165.939697 61.180313,166.734924 
	C62.589825,166.943100 63.496250,167.193588 64.402802,167.194061 
	C99.287224,167.212662 134.171677,167.221649 169.055984,167.155975 
	C170.377945,167.153488 171.698502,166.398880 173.137390,165.064133 
	C173.098785,127.712578 173.060181,90.361023 172.933594,52.459293 
	C172.618851,52.298756 172.304092,52.138214 171.059433,51.859467 
	C139.707535,51.901894 108.355652,51.944324 76.214180,52.383305 
	C76.047722,54.516964 75.745209,56.649990 75.735329,58.784374 
	C75.600754,87.860420 75.506699,116.936661 75.039658,146.580994 
	C73.383736,153.962051 69.326111,159.867462 63.195557,165.121796 
M51.403328,110.977982 
	C59.599518,112.205544 65.397827,117.237755 70.712051,123.476059 
	C70.840706,122.681358 70.977638,122.229774 70.977798,121.778145 
	C70.989258,90.278168 71.152504,58.776279 70.781563,27.280689 
	C70.736122,23.422285 68.562073,19.021236 66.098251,15.869258 
	C59.626343,7.589705 50.867176,3.969715 40.269012,6.034585 
	C31.828987,7.678978 25.337639,12.543407 22.249985,20.352024 
	C20.093170,25.806572 19.214275,32.073761 19.145658,37.993988 
	C18.832771,64.990349 19.008366,91.992371 19.008366,118.992355 
	C19.008366,120.737434 19.008366,122.482521 19.008366,123.572250 
	C21.421694,121.458481 23.650963,118.942047 26.389145,117.248383 
	C29.922901,115.062653 30.082249,112.084915 30.050793,108.496506 
	C29.913460,92.831055 29.972483,77.163658 30.007492,61.497082 
	C30.015242,58.030247 30.103762,58.030445 34.258377,58.787369 
	C34.258377,76.399986 34.258377,94.102615 34.258377,110.892624 
	C40.003826,110.892624 45.273495,110.892624 51.403328,110.977982 
M37.220592,165.696365 
	C41.715149,165.798019 46.339756,166.635986 50.680927,165.869217 
	C66.431824,163.087173 73.894798,148.584396 70.309494,133.835526 
	C67.819366,123.591881 57.761734,113.925232 42.899025,114.883827 
	C30.904245,115.657448 17.804893,129.161667 19.135593,140.963318 
	C20.397575,152.155548 25.090384,161.211746 37.220592,165.696365 
z"/>
<path fill="none" opacity="1.000000" stroke="none" 
	d="
M38.531342,1.000000 
	C29.515230,4.294950 21.342945,9.282291 17.490257,19.111916 
	C16.153254,22.523106 15.114024,26.315210 15.097032,29.938765 
	C14.924463,66.738113 15.179720,103.540031 14.894552,140.337982 
	C14.787767,154.117523 24.247768,166.632584 37.865501,170.655380 
	C25.688725,171.000000 13.377450,171.000000 1.033087,171.000000 
	C1.033087,114.456757 1.033087,57.913486 1.033087,1.000000 
	C13.351763,1.000000 25.707222,1.000000 38.531342,1.000000 
z"/>
<path fill="none" class="text-primary" opacity="1.000000" stroke="none" 
	d="
M77.003761,51.986755 
	C108.355652,51.944324 139.707535,51.901894 171.673981,52.112114 
	C172.505356,52.610950 172.749710,52.825851 173.021576,53.009468 
	C173.060181,90.361023 173.098785,127.712578 172.608444,165.525696 
	C138.426392,165.991440 104.773232,166.019043 71.120262,165.951202 
	C68.679985,165.946289 66.241096,165.247665 63.801567,164.871567 
	C69.326111,159.867462 73.383736,153.962051 75.531021,145.995255 
	C76.348099,143.324951 76.952896,141.240982 76.957451,139.155716 
	C77.020958,110.099503 77.002342,81.043106 77.003761,51.986755 
M103.760513,80.638268 
	C100.982994,79.753548 99.004341,75.838081 94.271156,78.532738 
	C96.871269,80.331810 99.262222,81.335999 100.704376,83.111046 
	C104.408089,87.669655 108.181366,86.845276 111.536575,83.333969 
	C114.143150,80.606133 116.357697,80.806572 118.804031,82.849449 
	C122.594063,86.014404 126.183960,85.871109 129.896652,82.790207 
	C132.004837,81.040779 134.301178,80.409668 136.557358,82.543144 
	C140.988998,86.733788 145.239288,85.364220 149.306732,82.070793 
	C150.688828,80.951698 151.701859,79.376793 152.883545,78.010170 
	C151.149002,78.319305 149.022690,78.099312 147.754486,79.038292 
	C144.170944,81.691528 140.964493,81.990776 137.528381,78.984253 
	C134.362259,76.213959 130.532440,76.723297 128.054230,79.136703 
	C124.947540,82.162155 122.587639,81.510849 119.942001,79.337906 
	C116.535110,76.539726 113.506500,77.073174 110.082458,79.440895 
	C108.558777,80.494530 106.309074,80.498230 103.760513,80.638268 
M104.342293,113.200401 
	C106.149551,112.815987 108.313286,112.932823 109.695084,111.950150 
	C113.367546,109.338455 116.707458,108.710152 120.310501,111.877342 
	C122.935097,114.184448 125.371437,113.668221 128.407196,112.038651 
	C130.533600,110.897217 134.221375,110.294991 136.042755,111.392357 
	C141.861710,114.898201 146.353394,112.636543 150.848862,109.312729 
	C151.844849,108.576347 152.337448,107.159126 153.061813,106.055382 
	C151.744583,106.142525 150.044647,105.731926 149.174698,106.400803 
	C144.824402,109.745636 140.791290,108.926125 136.241547,106.679131 
	C134.510345,105.824127 131.332001,106.101402 129.705536,107.192635 
	C125.885078,109.755890 122.594086,110.149086 119.059364,107.089851 
	C116.577713,104.942039 114.002892,104.722595 111.488853,106.965218 
	C107.782433,110.271484 104.264366,109.979286 100.454147,106.989899 
	C99.225052,106.025604 97.273033,105.982735 95.651733,105.518356 
	C95.417572,106.194244 95.183418,106.870140 94.949257,107.546036 
	C97.864052,109.317894 100.778839,111.089745 104.342293,113.200401 
M108.493690,141.031906 
	C111.852318,139.259399 114.916878,135.612640 119.138016,139.387787 
	C122.741997,142.610962 126.284126,142.031265 129.819336,139.229691 
	C131.972717,137.523178 134.006317,137.259552 136.608353,138.857193 
	C142.257858,142.325943 147.768051,141.376633 152.314240,136.542618 
	C152.794907,136.031525 152.873825,135.142593 153.139130,134.428940 
	C152.285049,134.188278 151.298615,133.555450 150.604767,133.789627 
	C149.213699,134.259140 147.882721,135.072525 146.705521,135.976517 
	C143.991684,138.060516 141.371719,138.442291 138.663940,136.037918 
	C135.090088,132.864517 131.582108,133.244736 128.018661,136.139374 
	C125.523903,138.165909 123.318489,138.398788 120.638222,135.800293 
	C118.201912,133.438309 114.829918,132.288284 111.690483,135.049286 
	C107.751526,138.513428 104.078964,137.967361 100.138123,134.994781 
	C98.971634,134.114899 97.151398,134.101715 95.630730,133.691360 
	C98.887611,139.060165 104.166313,141.763565 108.493690,141.031906 
z"/>
<path fill="none" opacity="1.000000" stroke="none" 
	d="
M50.973244,110.935303 
	C45.273495,110.892624 40.003826,110.892624 34.258377,110.892624 
	C34.258377,94.102615 34.258377,76.399986 34.258377,58.787369 
	C30.103762,58.030445 30.015242,58.030247 30.007492,61.497082 
	C29.972483,77.163658 29.913460,92.831055 30.050793,108.496506 
	C30.082249,112.084915 29.922901,115.062653 26.389145,117.248383 
	C23.650963,118.942047 21.421694,121.458481 19.008366,123.572250 
	C19.008366,122.482521 19.008366,120.737434 19.008366,118.992355 
	C19.008366,91.992371 18.832771,64.990349 19.145658,37.993988 
	C19.214275,32.073761 20.093170,25.806572 22.249985,20.352024 
	C25.337639,12.543407 31.828987,7.678978 40.269012,6.034585 
	C50.867176,3.969715 59.626343,7.589705 66.098251,15.869258 
	C68.562073,19.021236 70.736122,23.422285 70.781563,27.280689 
	C71.152504,58.776279 70.989258,90.278168 70.977798,121.778145 
	C70.977638,122.229774 70.840706,122.681358 70.712051,123.476059 
	C65.397827,117.237755 59.599518,112.205544 50.973244,110.935303 
z"/>
<path fill="none" opacity="1.000000" stroke="none" 
	d="
M36.920876,165.421204 
	C25.090384,161.211746 20.397575,152.155548 19.135593,140.963318 
	C17.804893,129.161667 30.904245,115.657448 42.899025,114.883827 
	C57.761734,113.925232 67.819366,123.591881 70.309494,133.835526 
	C73.894798,148.584396 66.431824,163.087173 50.680927,165.869217 
	C46.339756,166.635986 41.715149,165.798019 36.920876,165.421204 
M42.952030,127.004471 
	C34.001453,129.988403 30.938269,134.751968 32.004589,144.028870 
	C32.557575,148.839813 39.401924,154.732620 44.736317,154.990509 
	C50.402122,155.264450 58.188862,149.326462 59.008175,144.284637 
	C60.736721,133.647614 52.462044,125.434288 42.952030,127.004471 
z"/>
<path fill="none" opacity="1.000000" stroke="none" 
	d="
M63.498562,164.996674 
	C66.241096,165.247665 68.679985,165.946289 71.120262,165.951202 
	C104.773232,166.019043 138.426392,165.991440 172.549606,165.990997 
	C171.698502,166.398880 170.377945,167.153488 169.055984,167.155975 
	C134.171677,167.221649 99.287224,167.212662 64.402802,167.194061 
	C63.496250,167.193588 62.589825,166.943100 61.180313,166.734924 
	C62.173767,165.939697 62.684662,165.530746 63.498562,164.996674 
z"/>
<path fill="none" opacity="1.000000" stroke="none" 
	d="
M76.608971,52.185028 
	C77.002342,81.043106 77.020958,110.099503 76.957451,139.155716 
	C76.952896,141.240982 76.348099,143.324951 75.712524,145.711182 
	C75.506699,116.936661 75.600754,87.860420 75.735329,58.784374 
	C75.745209,56.649990 76.047722,54.516964 76.608971,52.185028 
z"/>
<path fill="none" opacity="1.000000" stroke="none" 
	d="
M172.977585,52.734383 
	C172.749710,52.825851 172.505356,52.610950 172.138947,52.171219 
	C172.304092,52.138214 172.618851,52.298756 172.977585,52.734383 
z"/>
<path fill="currentColor" opacity="1.000000" stroke="none" 
	d="
M104.074707,80.808380 
	C106.309074,80.498230 108.558777,80.494530 110.082458,79.440895 
	C113.506500,77.073174 116.535110,76.539726 119.942001,79.337906 
	C122.587639,81.510849 124.947540,82.162155 128.054230,79.136703 
	C130.532440,76.723297 134.362259,76.213959 137.528381,78.984253 
	C140.964493,81.990776 144.170944,81.691528 147.754486,79.038292 
	C149.022690,78.099312 151.149002,78.319305 152.883545,78.010170 
	C151.701859,79.376793 150.688828,80.951698 149.306732,82.070793 
	C145.239288,85.364220 140.988998,86.733788 136.557358,82.543144 
	C134.301178,80.409668 132.004837,81.040779 129.896652,82.790207 
	C126.183960,85.871109 122.594063,86.014404 118.804031,82.849449 
	C116.357697,80.806572 114.143150,80.606133 111.536575,83.333969 
	C108.181366,86.845276 104.408089,87.669655 100.704376,83.111046 
	C99.262222,81.335999 96.871269,80.331810 94.271156,78.532738 
	C99.004341,75.838081 100.982994,79.753548 104.074707,80.808380 
z"/>
<path fill="currentColor" opacity="1.000000" stroke="none" 
	d="
M104.017960,113.030998 
	C100.778839,111.089745 97.864052,109.317894 94.949257,107.546036 
	C95.183418,106.870140 95.417572,106.194244 95.651733,105.518356 
	C97.273033,105.982735 99.225052,106.025604 100.454147,106.989899 
	C104.264366,109.979286 107.782433,110.271484 111.488853,106.965218 
	C114.002892,104.722595 116.577713,104.942039 119.059364,107.089851 
	C122.594086,110.149086 125.885078,109.755890 129.705536,107.192635 
	C131.332001,106.101402 134.510345,105.824127 136.241547,106.679131 
	C140.791290,108.926125 144.824402,109.745636 149.174698,106.400803 
	C150.044647,105.731926 151.744583,106.142525 153.061829,106.055389 
	C152.337448,107.159126 151.844849,108.576347 150.848862,109.312729 
	C146.353394,112.636543 141.861710,114.898201 136.042755,111.392357 
	C134.221375,110.294991 130.533600,110.897217 128.407196,112.038651 
	C125.371437,113.668221 122.935097,114.184448 120.310501,111.877342 
	C116.707458,108.710152 113.367546,109.338455 109.695084,111.950150 
	C108.313286,112.932823 106.149551,112.815987 104.017960,113.030998 
z"/>
<path fill="currentColor" opacity="1.000000" stroke="none" 
	d="
M108.151382,141.201111 
	C104.166313,141.763565 98.887611,139.060165 95.630730,133.691360 
	C97.151398,134.101715 98.971634,134.114899 100.138123,134.994781 
	C104.078964,137.967361 107.751526,138.513428 111.690483,135.049286 
	C114.829918,132.288284 118.201912,133.438309 120.638222,135.800293 
	C123.318489,138.398788 125.523903,138.165909 128.018661,136.139374 
	C131.582108,133.244736 135.090088,132.864517 138.663940,136.037918 
	C141.371719,138.442291 143.991684,138.060516 146.705521,135.976517 
	C147.882721,135.072525 149.213699,134.259140 150.604767,133.789627 
	C151.298615,133.555450 152.285049,134.188278 153.139130,134.428955 
	C152.873825,135.142593 152.794907,136.031525 152.314240,136.542618 
	C147.768051,141.376633 142.257858,142.325943 136.608353,138.857193 
	C134.006317,137.259552 131.972717,137.523178 129.819336,139.229691 
	C126.284126,142.031265 122.741997,142.610962 119.138016,139.387787 
	C114.916878,135.612640 111.852318,139.259399 108.151382,141.201111 
z"/>
<path fill="currentColor" opacity="1.000000" stroke="none" 
	d="
M43.375912,127.002556 
	C52.462044,125.434288 60.736721,133.647614 59.008175,144.284637 
	C58.188862,149.326462 50.402122,155.264450 44.736317,154.990509 
	C39.401924,154.732620 32.557575,148.839813 32.004589,144.028870 
	C30.938269,134.751968 34.001453,129.988403 43.375912,127.002556 
M45.509205,131.178345 
	C40.703957,132.218597 37.010910,134.659302 36.060715,139.757645 
	C35.189735,144.430954 39.165928,149.403839 43.851177,149.994690 
	C49.595009,150.719040 54.193768,147.221237 54.981316,141.529114 
	C55.597057,137.078751 51.551552,132.563843 45.509205,131.178345 
z"/>
<path fill="none" opacity="1.000000" stroke="none" 
	d="
M45.816147,131.410706 
	C51.551552,132.563843 55.597057,137.078751 54.981316,141.529114 
	C54.193768,147.221237 49.595009,150.719040 43.851177,149.994690 
	C39.165928,149.403839 35.189735,144.430954 36.060715,139.757645 
	C37.010910,134.659302 40.703957,132.218597 45.816147,131.410706 
z"/>
</svg>