<svg version="1.1" id="Layer_1" xmlns="http://www.w3.org/2000/svg" xmlns:xlink="http://www.w3.org/1999/xlink" x="0px" y="0px"
	 width="100%" viewBox="0 0 190 170" enable-background="new 0 0 190 170" xml:space="preserve">
<path fill="currentColor" opacity="1.000000" stroke="none" 
	d="
M181.000000,171.000000 
	C124.645775,171.000000 68.291542,171.000000 11.468641,170.531342 
	C10.999967,115.780464 10.988929,61.498234 11.042170,7.216068 
	C11.044203,5.143734 11.666655,3.072009 12.000000,1.000000 
	C68.020897,1.000000 124.041786,1.000000 180.531342,1.468657 
	C181.000000,58.291542 181.000000,114.645775 181.000000,171.000000 
M135.799347,143.733688 
	C136.128494,142.207275 136.742615,140.681290 136.744980,139.154373 
	C136.799103,104.181557 136.697281,69.208138 136.887741,34.236275 
	C136.914658,29.293476 135.241638,28.074484 130.558075,28.115963 
	C107.577690,28.319481 84.594498,28.201649 61.612324,28.221338 
	C59.831043,28.222864 58.049919,28.409325 56.206551,28.513338 
	C56.046276,29.798571 55.857601,30.607237 55.857212,31.415993 
	C55.839771,67.721184 55.828415,104.026390 55.884327,140.331497 
	C55.886082,141.470032 56.602520,142.607437 57.917686,143.876221 
	C83.616531,143.832626 109.315376,143.789047 135.799347,143.733688 
M129.500000,6.000039 
	C91.757805,6.000039 54.015606,6.000039 16.000038,6.000039 
	C16.000038,16.428581 15.995366,26.233629 16.001614,36.038670 
	C16.006092,43.067600 20.088150,45.570641 26.449036,42.083279 
	C29.933472,40.172932 33.085148,39.647148 36.319180,42.078911 
	C39.338497,44.349213 42.252789,44.059620 45.337914,42.286846 
	C47.143497,41.249325 49.069645,40.421619 51.000874,39.470303 
	C51.000874,35.470242 51.094646,31.641466 50.969513,27.819859 
	C50.878723,25.047174 51.980495,23.962769 54.778721,23.968300 
	C82.263710,24.022627 109.748894,24.022707 137.233887,23.968416 
	C140.042099,23.962870 141.121002,25.069592 141.030533,27.832508 
	C140.905426,31.651825 140.999146,35.478306 140.999146,39.011246 
	C143.185715,40.282024 144.994202,41.729259 147.056061,42.417744 
	C149.039291,43.079983 151.846786,43.891476 153.312744,43.009518 
	C158.330063,39.990940 162.733978,39.988182 167.702133,43.118118 
	C170.768539,45.049957 176.886002,42.173630 176.930923,39.072239 
	C177.089218,28.145790 176.992462,17.215647 176.992462,6.000039 
	C161.098099,6.000039 145.799042,6.000039 129.500000,6.000039 
M34.502029,166.000000 
	C81.900330,166.000000 129.298630,166.000000 176.847809,166.000000 
	C176.847809,154.156357 176.847809,141.877625 176.847809,128.887146 
	C172.132065,132.826141 167.794998,131.911377 163.180847,129.209961 
	C161.732941,128.362259 158.705093,128.459503 157.393921,129.445465 
	C152.563934,133.077408 148.303268,131.668716 143.870300,128.999481 
	C143.121063,128.548340 142.184662,128.407990 140.999374,128.012009 
	C140.999374,133.590042 140.891678,138.751678 141.040634,143.905899 
	C141.126938,146.891479 140.063293,148.051773 136.992065,148.043259 
	C109.661255,147.967484 82.330055,147.967316 54.999245,148.043457 
	C51.919292,148.052048 50.875778,146.873398 50.959538,143.897247 
	C51.106625,138.670853 51.000622,133.437317 51.000622,127.739868 
	C49.242523,128.491318 48.100979,128.759842 47.221310,129.392502 
	C42.994900,132.432159 39.045982,132.069046 34.609627,129.465744 
	C32.966515,128.501556 29.550495,128.583450 28.066368,129.692093 
	C23.529432,133.081177 19.690796,131.961807 16.078032,129.060516 
	C16.078032,141.642166 16.078032,154.118652 16.078032,166.000000 
	C22.234156,166.000000 27.868700,166.000000 34.502029,166.000000 
M155.307861,83.941338 
	C158.966476,80.936424 162.483749,82.055534 166.236282,83.976555 
	C170.589050,86.204857 176.838608,83.936447 176.913879,80.100327 
	C177.133148,68.926636 176.991699,57.745872 176.991699,45.743813 
	C171.650482,49.896873 167.174530,49.390614 162.349411,46.263126 
	C161.081116,45.441055 158.057999,46.340206 156.378540,47.346497 
	C153.013474,49.362743 150.045212,49.465919 146.763382,47.391880 
	C145.169464,46.384563 143.324036,45.775204 141.228607,44.819775 
	C141.228607,57.370659 141.228607,69.444153 141.228607,81.247711 
	C143.616562,82.211838 145.769943,83.407753 148.074844,83.914444 
	C150.130646,84.366371 152.353928,84.056366 155.307861,83.941338 
M166.041061,89.544159 
	C162.824280,86.717949 159.545731,86.399063 155.944305,88.974854 
	C152.899826,91.152306 149.742691,90.848656 146.559280,88.962334 
	C145.002563,88.039902 143.218857,87.500565 141.140442,86.619316 
	C141.140442,99.030823 141.140442,110.639214 141.140442,122.332642 
	C143.891617,123.574913 146.619888,124.916725 149.440079,126.024559 
	C150.522003,126.449570 152.235535,126.908798 152.942047,126.384064 
	C157.976959,122.644615 162.843933,122.758774 168.120804,125.944481 
	C170.939850,127.646362 176.929184,124.551025 176.956818,121.561455 
	C177.059265,110.479034 176.997635,99.395096 176.997635,88.841660 
	C173.319885,89.232712 170.018784,89.583710 166.041061,89.544159 
M16.035534,48.159298 
	C16.035534,59.644123 16.035534,71.128944 16.035534,82.104630 
	C20.117252,85.678757 23.816130,85.244659 28.172033,83.199944 
	C30.319458,82.191910 33.512699,83.451225 36.236683,83.620674 
	C38.849197,83.783188 41.524982,84.248436 44.065033,83.865242 
	C46.362869,83.518578 48.514977,82.205925 50.682106,81.338913 
	C50.682106,69.333389 50.682106,57.284595 50.682106,45.107166 
	C40.477013,49.456329 41.038467,50.953403 32.882431,46.046890 
	C32.146591,45.604225 30.627945,45.609848 29.937315,46.083931 
	C25.572985,49.079830 21.098946,49.763603 16.035534,48.159298 
M46.804375,88.032837 
	C43.054150,90.884857 39.444504,91.090614 35.365612,88.296608 
	C33.979687,87.347260 31.211586,87.294456 29.599081,88.011078 
	C25.080214,90.019325 20.825956,92.489639 16.000034,87.640892 
	C16.000034,97.964226 16.000017,107.280510 16.000038,116.596794 
	C16.000063,126.892105 19.013792,128.701401 28.332558,124.410538 
	C30.128595,123.583542 33.034794,123.203827 34.550964,124.101143 
	C39.089958,126.787453 43.153400,126.975716 47.458271,123.928719 
	C48.456028,123.222504 49.732868,122.910576 50.857525,122.427437 
	C50.857525,110.660072 50.857525,99.033943 50.857525,86.860550 
	C49.583946,87.251678 48.592003,87.556313 46.804375,88.032837 
z"/>
<path fill="none" opacity="1.000000" stroke="none" 
	d="
M11.517044,1.000000 
	C11.666655,3.072009 11.044203,5.143734 11.042170,7.216068 
	C10.988929,61.498234 10.999967,115.780464 10.999984,170.531342 
	C7.674819,171.000000 4.349638,171.000000 1.026869,171.000000 
	C1.029281,114.333328 1.029281,57.666656 1.029281,1.000000 
	C4.383738,1.000000 7.708913,1.000000 11.517044,1.000000 
z"/>
<path fill="none" opacity="1.000000" stroke="none" 
	d="
M181.486572,171.000000 
	C181.000000,114.645775 181.000000,58.291542 181.000000,1.468657 
	C184.325012,1.000000 187.650024,1.000000 190.975189,1.000002 
	C190.975342,57.666672 190.975342,114.333336 190.975342,171.000000 
	C187.958160,171.000000 184.965652,171.000000 181.486572,171.000000 
z"/>
<path fill="none" opacity="1.000000" stroke="none" 
	d="
M130.000000,6.000039 
	C145.799042,6.000039 161.098099,6.000039 176.992462,6.000039 
	C176.992462,17.215647 177.089218,28.145790 176.930923,39.072239 
	C176.886002,42.173630 170.768539,45.049957 167.702133,43.118118 
	C162.733978,39.988182 158.330063,39.990940 153.312744,43.009518 
	C151.846786,43.891476 149.039291,43.079983 147.056061,42.417744 
	C144.994202,41.729259 143.185715,40.282024 140.999146,39.011246 
	C140.999146,35.478306 140.905426,31.651825 141.030533,27.832508 
	C141.121002,25.069592 140.042099,23.962870 137.233887,23.968416 
	C109.748894,24.022707 82.263710,24.022627 54.778721,23.968300 
	C51.980495,23.962769 50.878723,25.047174 50.969513,27.819859 
	C51.094646,31.641466 51.000874,35.470242 51.000874,39.470303 
	C49.069645,40.421619 47.143497,41.249325 45.337914,42.286846 
	C42.252789,44.059620 39.338497,44.349213 36.319180,42.078911 
	C33.085148,39.647148 29.933472,40.172932 26.449036,42.083279 
	C20.088150,45.570641 16.006092,43.067600 16.001614,36.038670 
	C15.995366,26.233629 16.000038,16.428581 16.000038,6.000039 
	C54.015606,6.000039 91.757805,6.000039 130.000000,6.000039 
z"/>
<path fill="none" opacity="1.000000" stroke="none" 
	d="
M34.002636,166.000000 
	C27.868700,166.000000 22.234156,166.000000 16.078032,166.000000 
	C16.078032,154.118652 16.078032,141.642166 16.078032,129.060516 
	C19.690796,131.961807 23.529432,133.081177 28.066368,129.692093 
	C29.550495,128.583450 32.966515,128.501556 34.609627,129.465744 
	C39.045982,132.069046 42.994900,132.432159 47.221310,129.392502 
	C48.100979,128.759842 49.242523,128.491318 51.000622,127.739868 
	C51.000622,133.437317 51.106625,138.670853 50.959538,143.897247 
	C50.875778,146.873398 51.919292,148.052048 54.999245,148.043457 
	C82.330055,147.967316 109.661255,147.967484 136.992065,148.043259 
	C140.063293,148.051773 141.126938,146.891479 141.040634,143.905899 
	C140.891678,138.751678 140.999374,133.590042 140.999374,128.012009 
	C142.184662,128.407990 143.121063,128.548340 143.870300,128.999481 
	C148.303268,131.668716 152.563934,133.077408 157.393921,129.445465 
	C158.705093,128.459503 161.732941,128.362259 163.180847,129.209961 
	C167.794998,131.911377 172.132065,132.826141 176.847809,128.887146 
	C176.847809,141.877625 176.847809,154.156357 176.847809,166.000000 
	C129.298630,166.000000 81.900330,166.000000 34.002636,166.000000 
z"/>
<path fill="none" opacity="1.000000" stroke="none" 
	d="
M154.905579,84.011971 
	C152.353928,84.056366 150.130646,84.366371 148.074844,83.914444 
	C145.769943,83.407753 143.616562,82.211838 141.228607,81.247711 
	C141.228607,69.444153 141.228607,57.370659 141.228607,44.819775 
	C143.324036,45.775204 145.169464,46.384563 146.763382,47.391880 
	C150.045212,49.465919 153.013474,49.362743 156.378540,47.346497 
	C158.057999,46.340206 161.081116,45.441055 162.349411,46.263126 
	C167.174530,49.390614 171.650482,49.896873 176.991699,45.743813 
	C176.991699,57.745872 177.133148,68.926636 176.913879,80.100327 
	C176.838608,83.936447 170.589050,86.204857 166.236282,83.976555 
	C162.483749,82.055534 158.966476,80.936424 154.905579,84.011971 
z"/>
<path fill="none" opacity="1.000000" stroke="none" 
	d="
M166.379364,89.739441 
	C170.018784,89.583710 173.319885,89.232712 176.997635,88.841660 
	C176.997635,99.395096 177.059265,110.479034 176.956818,121.561455 
	C176.929184,124.551025 170.939850,127.646362 168.120804,125.944481 
	C162.843933,122.758774 157.976959,122.644615 152.942047,126.384064 
	C152.235535,126.908798 150.522003,126.449570 149.440079,126.024559 
	C146.619888,124.916725 143.891617,123.574913 141.140442,122.332642 
	C141.140442,110.639214 141.140442,99.030823 141.140442,86.619316 
	C143.218857,87.500565 145.002563,88.039902 146.559280,88.962334 
	C149.742691,90.848656 152.899826,91.152306 155.944305,88.974854 
	C159.545731,86.399063 162.824280,86.717949 166.379364,89.739441 
z"/>
<path fill="none" opacity="1.000000" stroke="none" 
	d="
M16.161564,47.743599 
	C21.098946,49.763603 25.572985,49.079830 29.937315,46.083931 
	C30.627945,45.609848 32.146591,45.604225 32.882431,46.046890 
	C41.038467,50.953403 40.477013,49.456329 50.682106,45.107166 
	C50.682106,57.284595 50.682106,69.333389 50.682106,81.338913 
	C48.514977,82.205925 46.362869,83.518578 44.065033,83.865242 
	C41.524982,84.248436 38.849197,83.783188 36.236683,83.620674 
	C33.512699,83.451225 30.319458,82.191910 28.172033,83.199944 
	C23.816130,85.244659 20.117252,85.678757 16.035534,82.104630 
	C16.035534,71.128944 16.035534,59.644123 16.161564,47.743599 
z"/>
<path fill="none" opacity="1.000000" stroke="none" 
	d="
M47.202217,87.946892 
	C48.592003,87.556313 49.583946,87.251678 50.857525,86.860550 
	C50.857525,99.033943 50.857525,110.660072 50.857525,122.427437 
	C49.732868,122.910576 48.456028,123.222504 47.458271,123.928719 
	C43.153400,126.975716 39.089958,126.787453 34.550964,124.101143 
	C33.034794,123.203827 30.128595,123.583542 28.332558,124.410538 
	C19.013792,128.701401 16.000063,126.892105 16.000038,116.596794 
	C16.000017,107.280510 16.000034,97.964226 16.000034,87.640892 
	C20.825956,92.489639 25.080214,90.019325 29.599081,88.011078 
	C31.211586,87.294456 33.979687,87.347260 35.365612,88.296608 
	C39.444504,91.090614 43.054150,90.884857 47.202217,87.946892 
z"/>
<path fill="currentColor" opacity="1.000000" stroke="none" 
	d="
M56.985779,143.745377 
	C56.602520,142.607437 55.886082,141.470032 55.884327,140.331497 
	C55.828415,104.026390 55.839771,67.721184 55.857212,31.415993 
	C55.857601,30.607237 56.046276,29.798571 56.206551,28.513338 
	C58.049919,28.409325 59.831043,28.222864 61.612324,28.221338 
	C84.594498,28.201649 107.577690,28.319481 130.558075,28.115963 
	C135.241638,28.074484 136.914658,29.293476 136.887741,34.236275 
	C136.697281,69.208138 136.799103,104.181557 136.744980,139.154373 
	C136.742615,140.681290 136.128494,142.207275 135.402466,143.446899 
	C135.000214,142.768951 134.994858,142.377792 134.993469,141.519379 
	C134.998276,105.763962 134.930649,70.475494 135.090332,35.188065 
	C135.109360,30.983799 133.841217,29.878756 129.738251,29.912329 
	C107.268509,30.096178 84.794922,30.138405 62.326511,29.886301 
	C57.681480,29.834181 56.896198,31.450781 56.914242,35.623161 
	C57.067520,71.077133 57.006943,106.532028 57.006973,142.279999 
	C56.997570,142.964020 56.991673,143.354706 56.985779,143.745377 
z"/>
<path fill="currentColor" opacity="1.000000" stroke="none" 
	d="
M134.989502,141.986649 
	C134.994858,142.377792 135.000214,142.768951 135.009888,143.452789 
	C109.315376,143.789047 83.616531,143.832626 57.451733,143.810791 
	C56.991673,143.354706 56.997570,142.964020 57.474426,142.285522 
	C83.626755,141.994019 109.308128,141.990341 134.989502,141.986649 
z"/>
<path fill="currentColor" opacity="1.000000" stroke="none" 
	d="
M134.993469,141.519379 
	C109.308128,141.990341 83.626755,141.994019 57.477932,141.992172 
	C57.006943,106.532028 57.067520,71.077133 56.914242,35.623161 
	C56.896198,31.450781 57.681480,29.834181 62.326511,29.886301 
	C84.794922,30.138405 107.268509,30.096178 129.738251,29.912329 
	C133.841217,29.878756 135.109360,30.983799 135.090332,35.188065 
	C134.930649,70.475494 134.998276,105.763962 134.993469,141.519379 
M68.060593,130.481644 
	C68.698662,130.975433 69.336723,131.469223 70.557327,132.572998 
	C87.157066,132.693741 103.756760,132.823975 120.356712,132.893982 
	C120.910683,132.896332 121.467232,132.289490 122.580238,131.791046 
	C123.089989,131.517548 123.599739,131.244049 124.879898,130.778870 
	C125.253174,129.428558 125.948875,128.079025 125.952095,126.727844 
	C126.016006,99.898323 126.023758,73.068527 125.931549,46.239174 
	C125.926773,44.849072 124.929970,43.462376 124.062080,41.636887 
	C123.695160,41.230286 123.328239,40.823685 122.544518,39.643925 
	C121.928802,39.435802 121.313538,39.047390 120.697311,39.045872 
	C104.533554,39.005993 88.369530,38.975658 72.206276,39.069962 
	C71.157539,39.076080 70.114708,40.093613 68.567734,41.037968 
	C68.304947,41.370514 68.042168,41.703056 67.027504,42.244263 
	C66.685425,43.275211 66.046661,44.305561 66.044571,45.337200 
	C65.989769,72.363083 65.978905,99.389183 66.074562,126.414841 
	C66.078751,127.598289 67.162315,128.777924 68.060593,130.481644 
z"/>
<path fill="currentColor" opacity="1.000000" stroke="none" 
	d="
M69.974792,131.963013 
	C69.336723,131.469223 68.698662,130.975433 67.957047,129.758209 
	C67.828789,100.035049 67.804085,71.035324 67.779381,42.035603 
	C68.042168,41.703056 68.304947,41.370514 69.247375,40.871384 
	C87.605118,40.608898 105.283211,40.512989 122.961311,40.417084 
	C123.328239,40.823685 123.695160,41.230286 124.164070,42.313713 
	C124.213875,72.317215 124.161682,101.643883 124.109489,130.970551 
	C123.599739,131.244049 123.089989,131.517548 121.832123,131.834564 
	C104.047600,131.906403 87.011192,131.934708 69.974792,131.963013 
M72.000015,101.500000 
	C72.000015,109.916443 72.000015,118.332886 72.000015,126.671028 
	C88.346107,126.671028 104.053452,126.671028 119.682053,126.671028 
	C119.682053,99.315125 119.682053,72.289368 119.682053,45.328644 
	C103.654564,45.328644 87.947220,45.328644 72.000015,45.328644 
	C72.000015,63.937466 72.000015,82.218735 72.000015,101.500000 
z"/>
<path fill="currentColor" opacity="1.000000" stroke="none" 
	d="
M124.494690,130.874710 
	C124.161682,101.643883 124.213875,72.317215 124.330544,42.532318 
	C124.929970,43.462376 125.926773,44.849072 125.931549,46.239174 
	C126.023758,73.068527 126.016006,99.898323 125.952095,126.727844 
	C125.948875,128.079025 125.253174,129.428558 124.494690,130.874710 
z"/>
<path fill="currentColor" opacity="1.000000" stroke="none" 
	d="
M67.403442,42.139931 
	C67.804085,71.035324 67.828789,100.035049 67.798294,129.497055 
	C67.162315,128.777924 66.078751,127.598289 66.074562,126.414841 
	C65.978905,99.389183 65.989769,72.363083 66.044571,45.337200 
	C66.046661,44.305561 66.685425,43.275211 67.403442,42.139931 
z"/>
<path fill="currentColor" opacity="1.000000" stroke="none" 
	d="
M122.752914,40.030502 
	C105.283211,40.512989 87.605118,40.608898 69.498077,40.672737 
	C70.114708,40.093613 71.157539,39.076080 72.206276,39.069962 
	C88.369530,38.975658 104.533554,39.005993 120.697311,39.045872 
	C121.313538,39.047390 121.928802,39.435802 122.752914,40.030502 
z"/>
<path fill="currentColor" opacity="1.000000" stroke="none" 
	d="
M70.266060,132.268005 
	C87.011192,131.934708 104.047600,131.906403 121.553284,131.922348 
	C121.467232,132.289490 120.910683,132.896332 120.356712,132.893982 
	C103.756760,132.823975 87.157066,132.693741 70.266060,132.268005 
z"/>
<path fill="none" opacity="1.000000" stroke="none" 
	d="
M72.000015,101.000000 
	C72.000015,82.218735 72.000015,63.937466 72.000015,45.328644 
	C87.947220,45.328644 103.654564,45.328644 119.682053,45.328644 
	C119.682053,72.289368 119.682053,99.315125 119.682053,126.671028 
	C104.053452,126.671028 88.346107,126.671028 72.000015,126.671028 
	C72.000015,118.332886 72.000015,109.916443 72.000015,101.000000 
M84.959976,99.590950 
	C84.585724,100.885887 84.211479,102.180817 83.846375,103.444099 
	C84.698288,103.748817 85.077728,104.030548 85.278809,103.935394 
	C93.007530,100.277542 100.738258,96.621567 108.371201,92.771973 
	C108.695663,92.608345 108.262695,89.696953 107.892967,89.628441 
	C106.607864,89.390297 105.043854,89.521957 103.856140,90.084015 
	C97.716888,92.989182 91.661507,96.071564 84.959976,99.590950 
M87.839821,82.655090 
	C95.047844,78.576508 103.050049,75.768951 109.071976,69.388893 
	C107.480598,68.721542 105.862396,68.263298 104.700592,68.797546 
	C98.228218,71.773819 91.823532,74.908951 85.517616,78.221802 
	C84.667130,78.668610 84.113869,80.450516 84.191841,81.560181 
	C84.229027,82.089386 86.070709,82.491791 87.839821,82.655090 
z"/>
<path fill="currentColor" opacity="1.000000" stroke="none" 
	d="
M85.268425,99.341553 
	C91.661507,96.071564 97.716888,92.989182 103.856140,90.084015 
	C105.043854,89.521957 106.607864,89.390297 107.892967,89.628441 
	C108.262695,89.696953 108.695663,92.608345 108.371201,92.771973 
	C100.738258,96.621567 93.007530,100.277542 85.278809,103.935394 
	C85.077728,104.030548 84.698288,103.748817 83.846375,103.444099 
	C84.211479,102.180817 84.585724,100.885887 85.268425,99.341553 
z"/>
<path fill="currentColor" opacity="1.000000" stroke="none" 
	d="
M87.467422,82.803360 
	C86.070709,82.491791 84.229027,82.089386 84.191841,81.560181 
	C84.113869,80.450516 84.667130,78.668610 85.517616,78.221802 
	C91.823532,74.908951 98.228218,71.773819 104.700592,68.797546 
	C105.862396,68.263298 107.480598,68.721542 109.071976,69.388893 
	C103.050049,75.768951 95.047844,78.576508 87.467422,82.803360 
z"/>
</svg>